Coordinates
version=1
nRows=19
nColumns=36
inDegrees=yes

Units are S.I. units (second, meters, Newtons, ...)
If the header above contains a line with 'inDegrees', this indicates whether rotational values are in degrees (yes) or radians (no).

endheader
time	pelvis_tilt	pelvis_list	pelvis_rotation	pelvis_tx	pelvis_ty	pelvis_tz	hip_flexion_r	hip_adduction_r	hip_rotation_r	knee_angle_r	knee_angle_r_beta	ankle_angle_r	subtalar_angle_r	mtp_angle_r	hip_flexion_l	hip_adduction_l	hip_rotation_l	knee_angle_l	knee_angle_l_beta	ankle_angle_l	subtalar_angle_l	mtp_angle_l	lumbar_extension	lumbar_bending	lumbar_rotation	arm_flex_r	arm_add_r	arm_rot_r	elbow_flex_r	pro_sup_r	arm_flex_l	arm_add_l	arm_rot_l	elbow_flex_l	pro_sup_l
      1.23333330	     -6.87618133	     -0.14885830	      8.65564915	     -0.12952603	      1.28174691	     -0.07252662	      5.63527100	     -1.88695927	      5.28585805	      9.24442116	      0.16134559	     18.21314961	    -10.85445819	     -7.49971532	     10.07120722	      1.42586478	     12.35695735	     13.59495460	      0.23727672	     13.86383760	    -11.66669775	     -7.49971532	      3.95790600	     -3.13526233	     -4.97092827	     -2.16447974	     -5.17006247	     10.04499107	     23.43676284	     72.75412443	     -6.15247977	     -9.68999018	     11.61691489	     27.65166600	     81.11301711
      1.25000000	     -6.85239225	     -0.16048511	      8.64602702	     -0.13003354	      1.28223086	     -0.07240971	      5.66661048	     -1.85560988	      5.38413063	      9.33494366	      0.16292550	     18.22621003	    -10.94888350	     -7.49973441	     10.04250858	      1.37090381	     12.23644383	     13.55614844	      0.23659942	     13.82780950	    -11.60318929	     -7.49973441	      3.76357318	     -3.18027400	     -4.95843137	     -2.09349008	     -5.16776514	     10.02543307	     23.45641522	     72.24352766	     -6.08638369	     -9.73232687	     11.66898605	     27.70889604	     80.37099839
      1.26666670	     -6.87339997	     -0.18654426	      8.72910488	     -0.12421264	      1.28192219	     -0.07531851	      5.54448719	     -1.87664481	      5.39154094	      9.39590697	      0.16398951	     18.17273453	    -10.92450349	     -7.49973457	     10.02424319	      1.35674579	     12.16193783	     13.53657645	      0.23625783	     13.81964753	    -11.61685989	     -7.49973457	      3.78651044	     -3.15363849	     -4.96779276	     -2.15102787	     -5.16533769	     10.03005081	     23.43676042	     72.24881710	     -6.12142804	     -9.69150165	     11.68089809	     27.70469131	     80.37955303
      1.28333330	     -6.79397152	     -0.15563585	      8.60523615	     -0.12455739	      1.28011793	     -0.07512385	      5.33484664	     -1.92590549	      5.27147704	      9.46066987	      0.16511984	     18.22091949	    -10.73962071	     -7.49975684	      9.69439175	      1.31992063	     11.81071616	     13.28378154	      0.23184573	     13.88963119	    -11.42380916	     -7.49975684	      3.86476083	     -3.12248051	     -4.98321462	     -2.32275377	     -5.21525010	      9.98525573	     23.50189454	     71.59777362	     -6.38691085	     -9.59632752	     11.75961018	     27.79266445	     79.42787409
      1.30000000	     -6.91343162	     -0.14988380	      8.63471954	     -0.12952405	      1.27578294	     -0.07245879	      5.59447173	     -1.95371154	      5.17666846	      9.65545851	      0.16851954	     18.67805643	    -10.62196050	     -7.49976066	      9.88074772	      1.36670688	     11.82546367	     13.36481900	      0.23326010	     14.15363934	    -11.43464490	     -7.49976066	      4.04327597	     -3.15643588	     -4.86411091	     -2.35945804	     -5.27857645	     10.20415589	     23.41421150	     71.92574998	     -6.24303905	     -9.66741227	     12.27065688	     27.62815624	     79.74703760
      1.31666670	     -7.09743768	     -0.11952139	      8.70874528	     -0.13007387	      1.27652460	     -0.07233521	      5.90297422	     -2.00117259	      5.33204874	      9.78850434	      0.17084163	     18.84858034	    -10.97880336	     -7.49981127	     10.25382033	      1.43920175	     11.77441814	     13.58760706	      0.23714848	     14.36455164	    -11.33537617	     -7.49981127	      4.17922926	     -3.28497111	     -4.79309561	     -2.43019305	     -5.23624759	     10.09685988	     23.48115935	     71.26541511	     -6.19164689	     -9.76355252	     12.28779690	     27.70171643	     78.62527623
      1.33333330	     -7.31117669	     -0.09025547	      8.85820297	     -0.12957009	      1.27637361	     -0.07242235	      6.29595986	     -2.06404377	      5.28423845	      9.96670234	      0.17395177	     18.97844917	    -11.27465000	     -7.49982155	     10.62358202	      1.51404141	     11.76097135	     13.85961142	      0.24189585	     14.50252554	    -11.36457380	     -7.49982155	      4.28311172	     -3.37842535	     -4.84056349	     -2.48056490	     -5.17069268	     10.09398794	     23.65181586	     70.77906269	     -6.13034766	     -9.89130081	     12.42536410	     27.86741268	     77.95731715
      1.35000000	     -7.50874052	     -0.14360111	      9.02663900	     -0.13062870	      1.27392915	     -0.07262630	      6.58499333	     -2.00333138	      5.18779012	     10.16701420	      0.17744787	     19.10065424	    -11.44916719	     -7.49982050	     10.99962284	      1.50733204	     11.72998064	     14.19237243	      0.24770363	     14.71553869	    -11.35351488	     -7.49982050	      4.37826190	     -3.38766985	     -4.71762723	     -2.58506136	     -5.21369560	     10.15498170	     23.69611471	     70.64975033	     -5.94669230	     -9.99866357	     12.46922213	     28.17021986	     77.80675005
      1.36666670	     -7.82532085	     -0.13656096	      9.11417681	     -0.12985315	      1.27172296	     -0.07280972	      7.07712138	     -2.02456755	      4.96886123	     10.64528078	      0.18579520	     19.61659166	    -11.33312854	     -7.49984777	     11.55433972	      1.56956506	     11.42373082	     14.67530803	      0.25613244	     15.19256888	    -11.01144201	     -7.49984777	      4.51754187	     -3.48915536	     -4.64970593	     -2.71196799	     -5.22665046	     10.10625983	     23.78356769	     70.06086226	     -5.75490424	    -10.18961560	     12.80791477	     28.17481304	     76.95754594
      1.38333330	     -8.21762780	     -0.12037489	      9.21181656	     -0.13584841	      1.27501072	     -0.07534624	      7.73374404	     -2.13901523	      4.72177580	     11.01506465	      0.19224915	     19.88035451	    -11.28261193	     -7.49989320	     12.21698778	      1.74640839	     11.31477204	     15.08108175	      0.26321453	     15.22524345	    -11.28821882	     -7.49989320	      4.67110999	     -3.45987847	     -4.40673035	     -2.84095775	     -5.21838836	      9.11946397	     24.01715448	     73.83917023	     -5.15341364	    -10.29171968	     13.65724882	     27.80941990	     83.00333529
      1.40000000	     -8.46372812	     -0.03765953	      9.34501460	     -0.13541131	      1.27483625	     -0.07530989	      8.05558072	     -2.31469492	      4.67586899	     11.35880312	      0.19824851	     19.90710861	    -11.26079557	     -7.49990147	     12.63412884	      1.91245850	     11.06784096	     15.41037281	      0.26896174	     15.00338190	    -11.58768370	     -7.49990147	      4.40628452	     -3.55441828	     -4.27694716	     -2.79593523	     -5.22096903	      9.00463526	     24.21754062	     72.89819714	     -4.82742894	    -10.46363675	     13.33729938	     28.33114775	     81.69321896
      1.41666670	     -8.68771792	      0.04054108	      9.46750386	     -0.13500334	      1.27773423	     -0.07492816	      8.31142801	     -2.49944106	      4.38094195	     11.61788235	      0.20277030	     19.99118227	    -10.97127767	     -7.49991443	     12.99224880	      2.03858913	     10.75673280	     15.60194294	      0.27230527	     14.89396925	    -11.83929091	     -7.49991443	      4.12314675	     -3.61013243	     -4.22873172	     -2.86414919	     -5.23935785	      8.86535072	     24.60406203	     72.22099216	     -4.58094943	    -10.52003130	     13.19047409	     28.78909503	     80.61466607
      1.43333330	     -8.77113038	      0.08617072	      9.57841329	     -0.12886751	      1.27537470	     -0.07775570	      8.17332340	     -2.63227552	      4.21014000	     11.51967007	      0.20105617	     19.88794964	    -10.87492330	     -7.49991677	     13.15624788	      2.15995445	     10.60008577	     15.87989109	      0.27715638	     14.65836169	    -12.45242831	     -7.49991677	      3.84763906	     -3.55697437	     -4.10664769	     -3.20434458	     -5.42077132	      8.76702192	     25.01944512	     72.53147564	     -4.43454884	    -10.59831209	     13.17733264	     29.35213168	     81.06722207
      1.45000000	     -8.95727559	      0.20120417	      9.46252489	     -0.13478543	      1.27752870	     -0.07471387	      8.26243862	     -2.75684482	      4.39995143	     11.34836161	      0.19806627	     19.97350061	    -10.73925772	     -7.49991708	     13.47766266	      2.30664132	     10.22265511	     16.11386993	      0.28124009	     14.55563755	    -12.68915938	     -7.49991708	      3.58788597	     -3.58323736	     -4.11037675	     -3.21862520	     -5.53754931	      8.71904383	     25.05978934	     72.57030913	     -4.25095177	    -10.65798334	     13.13472579	     29.49998902	     81.12551468
      1.46666670	     -9.24186156	      0.21300612	      9.25177212	     -0.13972326	      1.27708607	     -0.07179567	      8.68436285	     -2.74520314	      4.58872148	     11.41142953	      0.19916702	     20.03418329	    -10.53180804	     -7.49995202	     14.08428780	      2.33609368	      9.98586031	     16.46014534	      0.28728373	     14.20010708	    -13.42585713	     -7.49995202	      3.19051361	     -3.52471396	     -3.68997201	     -3.69026143	     -5.50149620	      6.43487561	     25.69957798	     77.12793137	     -4.16831259	    -10.65952327	     11.24853299	     30.66513846	     87.49357545
      1.48333330	     -9.51953907	      0.31789633	      9.18783917	     -0.14617814	      1.28117564	     -0.07414442	      9.15880479	     -2.86895116	      4.80072063	     11.34835282	      0.19806612	     19.86959123	    -10.34085613	     -7.49995226	     14.71802844	      2.52855660	      9.70532490	     16.75244731	      0.29238536	     13.84545405	    -13.62095023	     -7.49995226	      2.58342551	     -3.48550797	     -3.68790155	     -3.60904946	     -5.72626025	      6.37109417	     25.70393993	     77.12731914	     -3.74444182	    -10.74349240	     11.17250407	     30.95005698	     87.49445769
      1.50000000	    -10.31728063	      0.17210212	      9.15535156	     -0.14529734	      1.27944621	     -0.07424902	     10.36247913	     -2.84276898	      4.96973072	     11.58418950	      0.20218225	     20.07842466	    -10.12619060	     -7.49995564	     16.15202802	      2.56567989	      9.45428326	     17.47961488	      0.30507683	     14.05125792	    -13.64854560	     -7.49995564	      2.60012415	     -3.27036070	     -3.55081157	     -4.40783302	     -6.24364131	      6.19647252	     27.19329508	     75.76625476	     -4.13251885	    -10.94496866	     11.02967294	     32.88926396	     85.77293923
      1.51666670	    -10.43510450	      0.28848973	      8.86295202	     -0.15071608	      1.28669551	     -0.07088093	     10.82530211	     -2.88662556	      5.37941334	     11.60550934	      0.20255435	     19.77288218	     -9.84002934	     -7.49995626	     16.57310907	      2.65555337	      9.13647505	     17.53851905	      0.30610490	     13.14549665	    -14.32839055	     -7.49995626	      1.36352782	     -3.21555773	     -3.16056176	     -4.08574221	     -6.41686957	      5.87661982	     26.76993729	     75.82023024	     -3.85975164	    -11.05960382	     10.62832580	     32.95330778	     85.86269096
      1.53333330	    -10.52225434	      0.27860414	      8.91514115	     -0.14938224	      1.28645909	     -0.07078520	     11.03556737	     -2.82070950	      5.53286744	     11.49267622	      0.20058504	     19.59034616	     -9.63767555	     -7.49997232	     16.97226286	      2.70258755	      9.22795284	     17.70675172	      0.30904112	     12.53687646	    -15.01600539	     -7.49997232	      0.05897429	     -3.11081291	     -3.17399530	     -4.12220156	     -6.39376748	      3.61564579	     26.73833099	     79.99551610	     -4.25781614	    -10.89145428	      7.26180201	     34.11151283	     91.51752584
